<svg width="22" height="24" viewBox="0 0 22 24" fill="none" xmlns="http://www.w3.org/2000/svg">
<g clip-path="url(#clip0_34_2)">
<path d="M19.5124 18.1538C19.2792 18.2308 19.0459 18.3077 18.735 18.3077C18.2686 18.3846 17.7244 18.3077 17.1025 18.3846C16.4806 18.4615 15.7809 18.6154 15.0813 19C14.4594 19.3846 13.9929 19.8462 13.6042 20.2308C13.0601 20.9231 12.7491 21.5385 12.4382 21.9231C12.2827 22.1538 12.1272 22.2308 11.894 22.3846C11.7385 22.4615 11.583 22.5385 11.2721 22.5385V12.5385L20.212 17.6154C19.9788 17.8462 19.7456 18 19.5124 18.1538ZM10.7279 22.6923C10.3392 22.6154 10.106 22.5385 9.95053 22.3846C9.79505 22.2308 9.56184 22.0769 9.40636 21.8462C9.17315 21.4615 8.86219 21 8.4735 20.5385C8.08481 20 7.61838 19.5385 6.84099 19.0769C6.21908 18.6923 5.59717 18.5385 5.053 18.4615C4.19788 18.3077 3.49823 18.3846 2.95406 18.3077L2.25442 18.0769C2.09894 18 1.94346 17.8462 1.78799 17.6154L10.6502 12.5385V22.6923H10.7279ZM1.32155 16.3846C1.32155 16.1538 1.39929 15.9231 1.47703 15.6154C1.63251 15.2308 1.94346 14.7692 2.17668 14.1538C2.40989 13.5385 2.64311 12.8462 2.64311 12V11.9231C2.64311 10.7692 2.17668 9.92308 1.86572 9.23077L1.39929 8.30769C1.32155 8 1.24382 7.76923 1.24382 7.53846C1.24382 7.30769 1.32155 7.07692 1.39929 6.76923L10.2615 11.8462L1.47703 17.0769C1.39929 16.7692 1.32155 16.5385 1.32155 16.3846ZM2.48763 5.84615C2.72085 5.76923 2.95406 5.69231 3.26502 5.69231C3.73145 5.61538 4.27562 5.69231 4.89753 5.61538C5.4417 5.46154 6.14134 5.30769 6.84099 4.92308C7.4629 4.53846 7.92933 4.07692 8.31802 3.69231C8.86219 3 9.17315 2.38462 9.4841 2C9.63958 1.76923 9.79505 1.69231 10.0283 1.53846C10.1837 1.46154 10.417 1.38462 10.6502 1.38462V11.5385L1.78799 6.38462C2.0212 6.07692 2.25442 5.92308 2.48763 5.84615ZM11.2721 1.30769C11.6608 1.30769 11.894 1.46154 12.0495 1.61538C12.2049 1.76923 12.4382 1.92308 12.5936 2.15385C12.8269 2.53846 13.1378 3 13.5265 3.46154C13.9152 4 14.3816 4.46154 15.159 4.92308C15.7809 5.30769 16.4028 5.46154 17.0247 5.53846C17.8799 5.61538 18.5795 5.61538 19.1237 5.69231L19.8233 5.92308C19.9788 6 20.1343 6.15385 20.2898 6.38462L11.4276 11.4615V1.30769H11.2721ZM20.6784 7.61538C20.6784 7.84615 20.6007 8.07692 20.523 8.38461C20.3675 8.76923 20.0565 9.23077 19.8233 9.84615C19.5901 10.4615 19.3569 11.1538 19.3569 12V12.1538C19.3569 13.3077 19.7456 14.1538 20.1343 14.8462L20.6007 15.7692C20.6784 16.0769 20.7562 16.3077 20.7562 16.5385C20.7562 16.7692 20.6784 17 20.6007 17.2308L11.7385 12.1538L20.4452 6.92308C20.6007 7.23077 20.6784 7.46154 20.6784 7.61538ZM20.9894 13.6154C20.7562 13.1538 20.6007 12.6154 20.6007 12.0769V12C20.6007 11.2308 20.9117 10.6154 21.2226 9.92308C21.3781 9.61538 21.6113 9.30769 21.689 8.92308C21.8445 8.53846 21.9223 8.15385 21.9223 7.69231C21.9223 7.15385 21.7668 6.61538 21.4558 6.07692C21.0671 5.46154 20.6007 5 20.0565 4.76923C19.6678 4.61538 19.2792 4.53846 18.8905 4.46154C18.3463 4.38462 17.8021 4.38461 17.258 4.38461C16.7138 4.30769 16.2474 4.23077 15.7809 3.92308C15.3145 3.69231 15.0035 3.38462 14.6926 3C14.3039 2.30769 13.9929 1.69231 13.4488 1.07692C13.2155 0.769231 12.9046 0.461538 12.4382 0.307692C12.0495 0.0769231 11.583 0 10.9611 0C10.1837 0 9.56184 0.153846 9.09541 0.538461C8.70671 0.769231 8.4735 1.07692 8.24028 1.38462C7.92933 1.84615 7.69611 2.30769 7.38516 2.69231C7.07421 3.07692 6.76325 3.46154 6.21908 3.76923C5.75265 4.07692 5.28622 4.15385 4.81979 4.23077C4.12014 4.30769 3.4205 4.23077 2.64311 4.38461C2.25442 4.46154 1.86572 4.61538 1.47703 4.92308C1.08834 5.15385 0.777385 5.53846 0.466431 6C0.155477 6.53846 0 7.15385 0 7.69231C0 8.15385 0.0777385 8.53846 0.233216 8.92308C0.466431 9.46154 0.777385 9.92308 1.0106 10.4615C1.24382 10.9231 1.39929 11.4615 1.39929 12.0769V12.1538C1.39929 13 1.08834 13.5385 0.777385 14.2308C0.621908 14.5385 0.388693 14.8462 0.310954 15.2308C0.155477 15.6154 0.0777385 16 0.0777385 16.4615C0.0777385 17 0.233216 17.5385 0.54417 18.0769C0.932862 18.6923 1.39929 19.1538 1.94346 19.3846C2.33216 19.5385 2.72085 19.6154 3.10954 19.6923C3.65371 19.7692 4.19788 19.7692 4.74205 19.7692C5.28622 19.8462 5.75265 19.9231 6.29682 20.2308C6.76325 20.4615 7.07421 20.7692 7.38516 21.1538C7.77385 21.6923 8.08481 22.3077 8.62898 22.9231C8.86219 23.2308 9.17315 23.4615 9.63958 23.6923C10.0283 23.9231 10.5724 24 11.1166 24C11.894 24 12.5159 23.7692 12.9823 23.4615C13.371 23.2308 13.6042 22.9231 13.8375 22.6154C14.1484 22.1538 14.4594 21.6923 14.7703 21.3077C15.0813 20.9231 15.3922 20.5385 15.9364 20.2308C16.4028 20 16.7915 19.8462 17.258 19.7692C17.9576 19.6923 18.6572 19.7692 19.4346 19.6154C19.8233 19.5385 20.212 19.3846 20.6007 19.1538C20.9894 18.9231 21.3004 18.5385 21.6113 18.0769C21.9223 17.5385 22.0777 16.9231 22.0777 16.4615C22.0777 16 22 15.6154 21.8445 15.2308C21.4558 14.5385 21.2226 14.0769 20.9894 13.6154Z" fill="white"/>
</g>
<defs>
<clipPath id="clip0_34_2">
<rect width="22" height="24" fill="white"/>
</clipPath>
</defs>
</svg>
